<svg width="20" height="22" viewBox="0 0 20 22" fill="none" xmlns="http://www.w3.org/2000/svg">
<path fill-rule="evenodd" clip-rule="evenodd" d="M9.71926 2.60591C11.0131 2.55398 12.3089 2.59014 13.5982 2.71414C14.2237 2.70594 14.8451 2.82012 15.4302 3.05074C16.2373 3.44249 16.886 4.11816 17.2621 4.95889C17.4829 5.56985 17.5915 6.21862 17.5821 6.87137C17.5821 7.88119 17.686 8.21779 17.686 10.9117C17.7359 12.2594 17.7012 13.6091 17.5821 14.9521C17.59 15.6036 17.4804 16.2508 17.259 16.8602C16.8829 17.7009 16.2342 18.3766 15.427 18.7684C14.842 18.999 14.2206 19.1132 13.5951 19.105C12.6256 19.105 12.3025 19.2132 9.71614 19.2132C8.42324 19.2639 7.12854 19.2267 5.8403 19.1017C5.21481 19.1099 4.59341 18.9957 4.00837 18.7651C3.20192 18.3744 2.55333 17.7004 2.17643 16.8613C1.95503 16.2519 1.84541 15.6047 1.85328 14.9531C1.85328 13.9433 1.74937 13.6067 1.74937 10.9128C1.69951 9.5651 1.73423 8.21544 1.85328 6.87246C1.84541 6.22095 1.95503 5.57369 2.17643 4.96431C2.36448 4.5477 2.61963 4.16772 2.93082 3.84085C3.1835 3.44827 3.56776 3.16806 4.00837 3.05507C4.59341 2.82445 5.21481 2.71027 5.8403 2.71847C7.12965 2.59446 8.42539 2.55831 9.71926 2.61023V2.60591ZM9.71926 0.810318C8.39077 0.759755 7.06054 0.795904 5.73639 0.918551C4.92501 0.917581 4.12031 1.07128 3.36205 1.37205C2.70818 1.59421 2.11638 1.97953 1.63818 2.49443C1.14385 2.99252 0.773928 3.60894 0.560635 4.29001C0.220175 5.0638 0.0705248 5.91387 0.125252 6.76314C0.00750403 8.14238 -0.0272006 9.52795 0.0213425 10.9117C-0.0273744 12.2969 0.00733035 13.6839 0.125252 15.0646C0.1235 15.908 0.269639 16.7447 0.556479 17.5334C0.769771 18.2145 1.13969 18.8309 1.63403 19.329C2.11222 19.8439 2.70402 20.2292 3.35789 20.4514C4.11511 20.7502 4.91835 20.9024 5.72808 20.9005C7.05361 21.0234 8.38523 21.0595 9.7151 21.0088C11.045 21.0595 12.3766 21.0234 13.7021 20.9005C14.5119 20.9024 15.3151 20.7502 16.0723 20.4514C16.7225 20.2185 17.3131 19.8343 17.7993 19.3279C18.2855 18.8215 18.6543 18.2063 18.8779 17.5291C19.1647 16.7404 19.3109 15.9037 19.3091 15.0603C19.3091 13.9379 19.413 13.6013 19.413 10.9074C19.4617 9.52218 19.427 8.13516 19.3091 6.75448C19.3109 5.91107 19.1647 5.07441 18.8779 4.28568C18.6646 3.60461 18.2947 2.98819 17.8003 2.4901C17.322 1.97692 16.7306 1.59313 16.0775 1.37205C15.3202 1.07167 14.5166 0.917977 13.7063 0.918551C12.3808 0.79572 11.0491 0.759572 9.71926 0.810318ZM9.71926 5.749C9.06542 5.73788 8.4161 5.86382 7.80993 6.11933C7.20376 6.37485 6.6531 6.75472 6.1907 7.23635C5.7283 7.71799 5.36361 8.29155 5.1183 8.92295C4.87299 9.55434 4.75208 10.2307 4.76275 10.9117C4.76275 11.9328 5.05345 12.931 5.59808 13.78C6.1427 14.629 6.9168 15.2907 7.82249 15.6814C8.72817 16.0722 9.72476 16.1744 10.6862 15.9752C11.6477 15.776 12.5309 15.2843 13.224 14.5623C13.9172 13.8403 14.3893 12.9204 14.5805 11.9189C14.7718 10.9174 14.6736 9.87939 14.2985 8.93603C13.9233 7.99266 13.288 7.18636 12.4729 6.61907C11.6579 6.05178 10.6996 5.749 9.71926 5.749ZM9.71926 14.2788C9.29261 14.2869 8.86878 14.2053 8.47307 14.039C8.07737 13.8726 7.71791 13.6249 7.41618 13.3106C7.11444 12.9963 6.87661 12.6219 6.7169 12.2098C6.55719 11.7976 6.47887 11.3561 6.48662 10.9117C6.47887 10.4673 6.55719 10.0258 6.7169 9.61368C6.87661 9.20151 7.11444 8.8271 7.41618 8.51281C7.71791 8.19852 8.07737 7.9508 8.47307 7.78444C8.86878 7.61809 9.29261 7.53651 9.71926 7.54458C10.1459 7.53651 10.5697 7.61809 10.9654 7.78444C11.3612 7.9508 11.7206 8.19852 12.0223 8.51281C12.3241 8.8271 12.5619 9.20151 12.7216 9.61368C12.8813 10.0258 12.9596 10.4673 12.9519 10.9117C12.9596 11.3561 12.8813 11.7976 12.7216 12.2098C12.5619 12.6219 12.3241 12.9963 12.0223 13.3106C11.7206 13.6249 11.3612 13.8726 10.9654 14.039C10.5697 14.2053 10.1459 14.2869 9.71926 14.2788ZM14.8919 4.28893C14.6574 4.28893 14.4282 4.36136 14.2332 4.49706C14.0382 4.63275 13.8863 4.82562 13.7965 5.05128C13.7068 5.27694 13.6833 5.52524 13.7291 5.7648C13.7748 6.00435 13.8877 6.2244 14.0535 6.39711C14.2194 6.56981 14.4306 6.68743 14.6606 6.73508C14.8906 6.78273 15.129 6.75828 15.3456 6.66481C15.5623 6.57134 15.7474 6.41305 15.8777 6.20997C16.008 6.00688 16.0775 5.76812 16.0775 5.52387C16.0748 5.19722 15.949 4.88475 15.7273 4.65376C15.5055 4.42277 15.2055 4.29176 14.8919 4.28893Z" fill="white"/>
</svg>
