<svg width="20" height="18" viewBox="0 0 20 18" fill="none" xmlns="http://www.w3.org/2000/svg">
<path fill-rule="evenodd" clip-rule="evenodd" d="M6.16345 17.0069C7.65307 17.0209 9.13044 16.7256 10.5093 16.1383C11.8881 15.551 13.1408 14.6834 14.1942 13.5862C15.2475 12.489 16.0805 11.1842 16.6443 9.74801C17.2082 8.3118 17.4917 6.77296 17.4782 5.22137V4.65964C18.2312 4.06272 18.8863 3.34266 19.4182 2.52745C18.6956 2.85469 17.9346 3.08105 17.155 3.20066C17.9564 2.67647 18.5639 1.88534 18.8789 0.955901C18.1003 1.40733 17.2667 1.74701 16.4007 1.96572C16.0362 1.53787 15.5879 1.19633 15.086 0.964078C14.5841 0.731828 14.0403 0.614263 13.4912 0.619296C12.439 0.636861 11.4347 1.08004 10.6906 1.85508C9.9465 2.63013 9.52102 3.67626 9.50416 4.7722C9.47834 5.07592 9.51373 5.3819 9.60807 5.67054C8.0225 5.59075 6.4716 5.15897 5.05927 4.4041C3.64693 3.64923 2.40577 2.58872 1.41892 1.29359C1.06421 1.94338 0.87833 2.67829 0.879631 3.42578C0.893854 4.10418 1.05653 4.77025 1.35527 5.37326C1.654 5.97627 2.08092 6.50031 2.6035 6.90548C1.95572 6.89155 1.32327 6.69762 0.771565 6.34375V6.34375C0.770513 7.305 1.09359 8.23612 1.68442 8.97456C2.27524 9.713 3.09627 10.2119 4.0042 10.3841C3.65311 10.4812 3.28911 10.5178 2.92666 10.4923C2.6707 10.5116 2.41369 10.4747 2.17227 10.3841C2.4352 11.2167 2.93872 11.9443 3.61391 12.4675C4.28911 12.9906 5.103 13.2836 5.9442 13.3064C4.52778 14.4587 2.78492 15.0901 0.987697 15.102C0.661026 15.1215 0.333494 15.0849 0.018219 14.9937C1.80134 16.3426 3.95685 17.0518 6.16034 17.0144" fill="white"/>
</svg>
